<svg width="1011" height="388" viewBox="0 0 1011 388" fill="none" xmlns="http://www.w3.org/2000/svg">
<g id="undraw_Code_thinking_re_gka2 1">
<g id="legs">
<path id="Vector" d="M30.9108 415.528L26.2054 398.843L91.3709 373.576L98.3153 398.201L30.9108 415.528Z" fill="#FFB8B8"/>
<path id="Vector_2" d="M15.171 424.138L0 370.339L0.712695 370.156C6.52933 368.661 12.7298 369.433 17.9502 372.302C23.1706 375.172 26.9834 379.904 28.55 385.457L28.5503 385.458L37.8161 418.317L15.171 424.138Z" fill="#2F2E41"/>
<path id="Vector_3" d="M120.673 412.862L106.038 402.7L140.128 343.962L161.73 358.961L120.673 412.862Z" fill="#FFB8B8"/>
<path id="Vector_4" d="M114.089 429L66.895 396.231L67.329 395.661C70.8721 391.01 76.2051 387.893 82.155 386.996C88.105 386.099 94.1845 387.494 99.0566 390.877L99.0577 390.877L127.882 410.892L114.089 429Z" fill="#2F2E41"/>
<path id="Vector_5" d="M245.088 330.782L208.257 296.621C205.043 293.639 200.809 291.866 196.334 291.628C191.86 291.389 187.446 292.701 183.904 295.322L114.36 369.085L120.586 378.33L186.987 335.404L231.946 391.538L274.831 371.066L245.088 330.782Z" fill="#2F2E41"/>
<path id="Vector_6" d="M294.198 409.369L278.981 418.615H260.997L177.304 388.897L54.876 410.029L51.4177 384.934L163.471 338.046L261.689 369.085L294.198 409.369Z" fill="#2F2E41"/>
</g>
<g id="body">
<path id="Vector_7" d="M331.487 325.967C331.486 341.511 328.921 356.958 323.885 371.739L321.865 377.67L312.182 419.935L301.806 422.577L294.198 413.331L278.981 402.765L267.914 385.595L258.424 370.498L255.464 365.783L245.089 316.253L205.663 295.12L192.521 293.139L195.287 285.875L207.046 270.686L218.805 269.365L222.263 266.723L225.03 268.044L240.281 273.654L289.73 253.707L296.965 254.836L321.865 274.648C328.231 291.075 331.489 308.452 331.487 325.967V325.967Z" fill="#E1651F"/>
<path id="Vector_8" opacity="0.1" d="M323.94 320.216L297.656 336.725L258.424 370.497L255.464 365.783L247.163 326.159H249.239L270.681 288.517L323.94 320.216Z" fill="#E1651F"/>
<path id="Vector_9" d="M270.681 284.554L249.239 322.196L236.788 335.405L225.722 338.046L255.464 369.085L297.656 332.763L323.94 316.253L270.681 284.554Z" fill="#E1651F"/>
<path id="Vector_10" d="M229.18 338.046L202.204 336.065L182.669 331.543C181.565 329.899 179.962 328.617 178.074 327.867C176.186 327.117 174.103 326.936 172.104 327.348C170.106 327.759 168.286 328.744 166.89 330.17C165.493 331.596 164.587 333.396 164.291 335.327C163.995 337.259 164.324 339.231 165.235 340.979C166.145 342.727 167.593 344.168 169.385 345.109C171.177 346.049 173.227 346.445 175.261 346.243C177.294 346.04 179.215 345.249 180.765 343.976L180.762 343.99L192.521 348.612L243.013 365.122L249.239 360.499L229.18 338.046Z" fill="#FFB9B9"/>
<path id="Vector_11" d="M230.249 239.329C230.258 238.012 229.984 236.708 229.441 235.497C228.899 234.286 228.102 233.195 227.098 232.292C226.095 231.389 224.907 230.693 223.609 230.248C222.311 229.802 220.931 229.617 219.555 229.704C218.179 229.791 216.836 230.148 215.611 230.752C214.385 231.356 213.304 232.196 212.433 233.217C211.563 234.238 210.923 235.42 210.552 236.688C210.181 237.957 210.089 239.284 210.28 240.588L181.454 276.629C180.224 278.978 179.747 281.621 180.083 284.227C180.419 286.834 181.553 289.287 183.343 291.281L185.604 293.799L195.979 291.818L207.738 281.912L206.354 270.686L220.88 248.893L220.861 248.877C223.404 248.722 225.789 247.649 227.533 245.876C229.277 244.102 230.248 241.762 230.249 239.329V239.329Z" fill="#FFB9B9"/>
</g>
<g id="head">
<path id="Vector_12" d="M261.689 248.893C276.587 248.893 288.665 237.362 288.665 223.137C288.665 208.913 276.587 197.382 261.689 197.382C246.791 197.382 234.713 208.913 234.713 223.137C234.713 237.362 246.791 248.893 261.689 248.893Z" fill="#FFB9B9"/>
<path id="Vector_13" d="M240.707 203.987L237.785 205.061C237.341 204.774 236.961 204.406 236.666 203.979C236.371 203.552 236.167 203.074 236.066 202.571C235.964 202.069 235.968 201.553 236.075 201.051C236.183 200.55 236.393 200.074 236.694 199.651C236.709 199.628 236.725 199.606 236.742 199.585L231.34 199.343C234.808 194.934 239.216 191.279 244.273 188.618C249.331 185.958 254.923 184.353 260.679 183.91C266.434 183.467 272.223 184.196 277.662 186.049C283.1 187.901 288.065 190.836 292.227 194.658C292.473 193.849 295.154 195.422 296.248 197.017C296.616 195.702 299.129 202.062 300.018 206.558C300.43 205.061 302.012 207.478 300.626 209.797C301.504 209.675 301.901 211.82 301.221 213.016C302.182 212.585 302.02 215.146 300.978 216.858C302.349 216.742 300.861 243.709 280.282 241.744C278.849 235.459 279.253 235.849 277.566 227.768C276.781 226.972 275.921 226.247 275.062 225.524L270.419 221.61C265.02 217.06 260.108 211.444 252.916 209.743C247.973 208.574 244.847 208.311 247.541 202.993C245.107 203.962 242.835 205.404 240.379 206.305C240.412 205.562 240.755 204.73 240.707 203.987Z" fill="#2F2E41"/>
<path id="Vector_14" d="M275.177 230.732C277.851 230.732 280.018 228.662 280.018 226.109C280.018 223.556 277.851 221.486 275.177 221.486C272.503 221.486 270.335 223.556 270.335 226.109C270.335 228.662 272.503 230.732 275.177 230.732Z" fill="#FFB9B9"/>
</g>
<path id="Vector_15" d="M49.3872 116.929L47.9097 138.112L70.0963 139.523L71.5738 118.34L49.3872 116.929Z" fill="#5A5A5A"/>
<path id="Vector_16" d="M35.0725 128.177L62.0134 129.89L60.2192 155.612L33.2783 153.899L35.0725 128.177ZM60.764 130.934L36.1658 129.37L34.5277 152.855L59.1258 154.419L60.764 130.934Z" fill="black"/>
<path id="Vector_17" d="M174.767 54.1148L153.028 58.5747L157.699 79.3309L179.439 74.871L174.767 54.1148Z" fill="#656565"/>
<path id="Vector_18" d="M159.509 44.0613L165.181 69.2652L138.783 74.6808L133.111 49.4769L159.509 44.0613ZM163.786 68.4049L158.607 45.3926L134.505 50.3372L139.684 73.3496L163.786 68.4049Z" fill="black"/>
<path id="Vector_19" d="M168.292 151.622L148.586 169.246L130.128 150.431L149.834 132.808L168.292 151.622ZM148.64 167.661L166.633 151.571L149.78 134.392L131.787 150.483L148.64 167.661Z" fill="black"/>
</g>
</svg>
